<svg role="img" aria-hidden="true" focusable="false" xmlns="http://www.w3.org/2000/svg" viewBox="0 0 500 500"><path fill="#796da2" d="M391.91 442.37H107.77c-9.18 0-16.62-7.44-16.62-16.62V73.48c0-9.18 7.44-16.62 16.62-16.62h218.57l82.18 82.18v286.7c0 9.18-7.44 16.62-16.62 16.62Z"/><g fill="#534786" data-name="fold shadows"><path d="M91.15 249.42H194.1c7.15 0 13.81-3.61 17.71-9.59l27.15-41.62a15.15 15.15 0 0 0 0-16.55L212 140.34a21.79 21.79 0 0 0-18.25-9.89H91.15zM408.53 236.09H302.99c-5.61 0-10.85 2.84-13.92 7.54l-30.34 46.5a9.98 9.98 0 0 0 0 10.9l29 44.44c3.9 5.98 10.57 9.59 17.71 9.59h103.09zM336.92 139.05h71.61l-82.18-82.18v71.61c0 5.84 4.73 10.57 10.57 10.57"/></g><g data-name="label right"><path fill="#534786" d="M124.99 273.7h116.32v15.91H124.99z"/><path fill="#14b8a6" d="M312.05 341.15h170.42c9.18 0 16.62-7.44 16.62-16.62V238.8c0-9.18-7.44-16.62-16.62-16.62H312.05c-5.61 0-10.85 2.84-13.92 7.54l-30.34 46.5a9.98 9.98 0 0 0 0 10.9l30.34 46.5c3.07 4.7 8.3 7.54 13.92 7.54Z"/><g fill="#048d88"><path d="M379.06 242.01h94.97v7.93h-94.97zM379.06 265.8h83.67v7.93h-83.67zM379.06 289.59h63.73v7.93h-63.73zM379.06 313.38h94.97v7.93h-94.97z"/></g><path fill="#fff" d="M334.76 247.29c-15.7 0-28.94 10.54-33.04 24.93 2.74-2.84 6.57-4.62 10.83-4.62 8.31 0 15.05 6.74 15.05 15.05s-6.74 15.05-15.05 15.05c-3.78 0-7.23-1.4-9.87-3.71 4.96 12.89 17.45 22.03 32.08 22.03 18.98 0 34.37-15.39 34.37-34.37s-15.39-34.37-34.37-34.37Z"/></g><g data-name="label left"><path fill="#534786" d="M258.86 169.03h116.32v15.91H258.86z" data-name="word"/><path fill="#14b8a6" d="M188.12 236.47H17.7c-9.18 0-16.62-7.44-16.62-16.62v-85.73c0-9.18 7.44-16.62 16.62-16.62h170.42c5.61 0 10.85 2.84 13.92 7.54l30.34 46.5a9.98 9.98 0 0 1 0 10.9l-30.34 46.5c-3.07 4.7-8.3 7.54-13.92 7.54Z" data-name="label"/><g fill="#048d88" data-name="text"><path d="M26.14 136.94h96.97v7.93H26.14zM26.14 160.73h83.67v7.93H26.14zM26.14 184.52h63.73v7.93H26.14zM26.14 208.31h96.97v7.93H26.14z"/></g><path fill="#fff" d="M187.62 192.63c-8.31 0-15.05-6.74-15.05-15.05s6.74-15.05 15.05-15.05c4.26 0 8.1 1.78 10.83 4.62-4.1-14.39-17.34-24.93-33.04-24.93-18.98 0-34.37 15.39-34.37 34.37s15.39 34.37 34.37 34.37c14.63 0 27.12-9.15 32.08-22.03-2.64 2.3-6.09 3.71-9.87 3.71Z" data-name="eye"/></g></svg>